USFL
nRows=261
nColumns=2
inDegrees=yes
endheader
time	tib_ant_r	
2.79418	 21.303218	
2.82744	 21.307856	
2.8607	 21.303696	
2.89397	 21.333292	
2.92723	 21.340530	
2.9605	 21.343386	
2.99376	 21.349789	
3.02702	 21.352325	
3.06029	 21.312378	
3.09355	 21.312831	
3.12682	 21.324458	
3.16008	 21.335049	
3.19334	 21.340451	
3.22661	 21.354463	
3.25987	 21.373660	
3.29314	 21.389385	
3.3264	 21.380132	
3.35966	 21.410431	
3.39293	 21.458576	
3.42619	 21.485385	
3.45946	 21.530108	
3.49272	 21.536552	
3.52598	 21.568677	
3.55925	 21.629391	
3.59251	 21.685939	
3.62578	 21.700860	
3.65904	 21.735754	
3.6923	 21.781079	
3.72557	 21.767014	
3.75883	 21.773489	
3.7921	 21.787158	
3.82536	 21.818037	
3.85862	 21.869682	
3.89189	 21.932588	
3.92515	 22.049095	
3.95842	 22.095762	
3.99168	 22.144028	
4.02494	 22.161847	
4.05821	 22.193630	
4.09147	 22.243803	
4.12474	 22.248308	
4.158	 22.250359	
4.19126	 22.239934	
4.22453	 22.256860	
4.25779	 22.261901	
4.29106	 22.266852	
4.32432	 22.286617	
4.35758	 22.281103	
4.39085	 22.284346	
4.42411	 22.266148	
4.45738	 22.284393	
4.49064	 22.282542	
4.5239	 22.303897	
4.55717	 22.336241	
4.59043	 22.323961	
4.6237	 22.333510	
4.65696	 22.260507	
4.69022	 22.267475	
4.72349	 22.341075	
4.75675	 22.358981	
4.79002	 22.373674	
4.82328	 22.386533	
4.85654	 22.375679	
4.88981	 22.408911	
4.92307	 22.433539	
4.95634	 22.423964	
4.9896	 22.439579	
5.02286	 22.496864	
5.05613	 22.506905	
5.08939	 22.503289	
5.12266	 22.509657	
5.15592	 22.554097	
5.18918	 22.559524	
5.22245	 22.582220	
5.25571	 22.635606	
5.28898	 22.607609	
5.32224	 22.590967	
5.3555	 22.623098	
5.38877	 22.602744	
5.42203	 22.607400	
5.4553	 22.576391	
5.48856	 22.579793	
5.52182	 22.588124	
5.55509	 22.503470	
5.58835	 22.510548	
5.62162	 22.520714	
5.65488	 22.457725	
5.68814	 22.473219	
5.72141	 22.499935	
5.75467	 22.426044	
5.78794	 22.441973	
5.8212	 22.442641	
5.85446	 22.419046	
5.88773	 22.449468	
5.92099	 22.434529	
5.95426	 22.441041	
5.98752	 22.432476	
6.02078	 22.411773	
6.05405	 22.382024	
6.08731	 22.394690	
6.12058	 22.297832	
6.15384	 22.322194	
6.1871	 22.286434	
6.22037	 22.271654	
6.25363	 22.266013	
6.2869	 22.254920	
6.32016	 22.273828	
6.35342	 22.260893	
6.38669	 22.325511	
6.41995	 22.328405	
6.45322	 22.224747	
6.48648	 22.272998	
6.51974	 22.076608	
6.55301	 22.155827	
6.58627	 22.126449	
6.61954	 22.124199	
6.6528	 22.181770	
6.68606	 22.183781	
6.71933	 22.220410	
6.75259	 22.234005	
6.78586	 22.228430	
6.81912	 22.254463	
6.85238	 22.205254	
6.88565	 22.227384	
6.91891	 22.218871	
6.95218	 22.246481	
6.98544	 22.241913	
7.0187	 22.268115	
7.05197	 22.276290	
7.08523	 22.359253	
7.1185	 22.350785	
7.15176	 22.359368	
7.18502	 22.451167	
7.21829	 22.527829	
7.25155	 22.706870	
7.28482	 22.730783	
7.31808	 22.738840	
7.35134	 22.747274	
7.38461	 22.794338	
7.41787	 22.792060	
7.45114	 22.796156	
7.4844	 22.832843	
7.51766	 22.833042	
7.55093	 22.823713	
7.58419	 22.830461	
7.61746	 22.825336	
7.65072	 22.856601	
7.68398	 22.851655	
7.71725	 22.870932	
7.75051	 22.854395	
7.78378	 22.844793	
7.81704	 22.859764	
7.8503	 22.866491	
7.88357	 22.870718	
7.91683	 22.883020	
7.9501	 22.872538	
7.98336	 22.861987	
8.01662	 22.865783	
8.04989	 22.880720	
8.08315	 22.895700	
8.11642	 22.871264	
8.14968	 22.883632	
8.18294	 22.899588	
8.21621	 22.915518	
8.24947	 22.903819	
8.28274	 22.916204	
8.316	 22.886813	
8.34926	 22.866035	
8.38253	 22.879114	
8.41579	 22.872242	
8.44906	 22.901553	
8.48232	 22.907380	
8.51558	 22.925919	
8.54885	 22.931157	
8.58211	 22.917342	
8.61538	 22.939930	
8.64864	 22.927264	
8.6819	 22.920737	
8.71517	 22.919758	
8.74843	 22.903519	
8.7817	 22.895080	
8.81496	 22.916148	
8.84822	 22.891267	
8.88149	 22.890091	
8.91475	 22.913146	
8.94802	 22.936901	
8.98128	 22.915173	
9.01454	 22.914604	
9.04781	 22.930529	
9.08107	 22.930578	
9.11434	 22.905076	
9.1476	 22.908882	
9.18086	 22.903570	
9.21413	 22.902902	
9.24739	 22.892575	
9.28066	 22.882799	
9.31392	 22.918109	
9.34718	 22.916829	
9.38045	 22.870569	
9.41371	 22.843262	
9.44698	 22.805816	
9.48024	 22.669317	
9.5135	 22.623192	
9.54677	 22.554160	
9.58003	 22.511386	
9.6133	 22.458077	
9.64656	 22.375797	
9.67982	 22.325093	
9.71309	 22.282796	
9.74635	 22.220961	
9.77962	 22.211000	
9.81288	 22.192363	
9.84614	 22.138084	
9.87941	 22.135536	
9.91267	 22.102829	
9.94594	 22.069432	
9.9792	 22.060913	
10.0125	 22.061012	
10.0457	 22.080288	
10.079	 22.078368	
10.1123	 22.056812	
10.1455	 22.058599	
10.1788	 22.073551	
10.212	 22.077080	
10.2453	 22.024549	
10.2786	 21.978248	
10.3118	 21.985796	
10.3451	 21.982643	
10.3784	 21.925044	
10.4116	 21.835262	
10.4449	 21.804229	
10.4782	 21.770921	
10.5114	 21.760445	
10.5447	 21.739064	
10.578	 21.708952	
10.6112	 21.715903	
10.6445	 21.684637	
10.6777	 21.638401	
10.711	 21.635447	
10.7443	 21.567463	
10.7775	 21.563958	
10.8108	 21.557534	
10.8441	 21.566446	
10.8773	 21.533664	
10.9106	 21.532039	
10.9439	 21.527899	
10.9771	 21.494820	
11.0104	 21.481440	
11.0436	 21.499570	
11.0769	 21.501052	
11.1102	 21.455921	
11.1434	 21.454635	
11.1767	 21.469450	
11.21	 21.495277	
11.2432	 21.491422	
11.2765	 21.494436	
11.3098	 21.496942	
11.343	 21.483471	
11.3763	 21.484973	
11.4096	 21.507062	
11.4428	 21.519222	
